<?xml version="1.0" standalone="no"?>
    <!DOCTYPE svg PUBLIC "-//W3C//DTD SVG 20010904//EN"
     "http://www.w3.org/TR/2001/REC-SVG-20010904/DTD/svg10.dtd">
    <svg version="1.0" xmlns="http://www.w3.org/2000/svg"
     width="300.000000pt" height="374.000000pt" viewBox="0 0 300.000000 374.000000"
     preserveAspectRatio="xMidYMid meet">
    <metadata>
    Created by potrace 1.10, written by Peter Selinger 2001-2011
    </metadata>
    <g transform="translate(0.000000,374.000000) scale(0.100000,-0.100000)"
    fill="#000000" stroke="none">
    <path d="M1246 3332 c-5 -9 79 -26 134 -27 15 0 24 -5 22 -13 -2 -10 2 -11 15
    -4 10 6 26 6 40 1 24 -9 34 5 11 14 -8 3 -6 6 4 6 11 1 20 -9 24 -24 6 -25 15
    -31 27 -18 4 3 2 12 -4 20 -16 18 18 17 51 -2 14 -8 36 -19 49 -25 13 -6 21
    -13 17 -17 -3 -3 3 -12 14 -20 11 -8 20 -21 20 -29 0 -8 5 -14 11 -14 5 0 8 4
    4 9 -3 5 -1 12 4 15 5 3 19 -10 31 -31 16 -28 18 -38 8 -44 -7 -4 -9 -11 -5
    -15 3 -4 13 -2 21 5 12 10 12 16 -1 42 -14 28 -89 111 -124 137 -25 19 -164
    33 -212 22 -39 -8 -67 -5 -133 15 -12 4 -24 2 -28 -3z"/>
    <path d="M1137 3293 c3 -7 9 -13 14 -13 5 0 4 -12 -1 -26 -14 -35 -12 -41 5
    -18 8 10 15 15 15 11 0 -5 7 -1 16 7 8 9 21 16 28 16 8 0 20 7 27 16 12 15 10
    15 -24 0 -40 -16 -52 -6 -14 12 19 9 16 11 -24 9 -32 -1 -45 -6 -42 -14z"/>
    <path d="M1226 3264 c-19 -14 -19 -14 1 -14 12 0 28 -2 35 -5 8 -3 14 2 15 13
    2 22 -25 25 -51 6z"/>
    <path d="M1097 3235 c-15 -14 -22 -25 -15 -25 18 0 33 12 41 33 8 22 8 21 -26
    -8z"/>
    <path d="M1375 3253 c-16 -3 -37 -11 -45 -18 -8 -7 -30 -16 -48 -20 -18 -4
    -31 -9 -28 -12 3 -3 26 0 51 6 46 11 79 6 55 -9 -15 -9 46 -6 82 4 16 5 25 12
    22 18 -4 5 -10 5 -17 0 -13 -10 -53 -10 -63 1 -4 4 0 7 8 7 9 0 18 7 22 15 3
    8 2 14 -2 14 -4 -1 -20 -4 -37 -6z"/>
    <path d="M996 3227 c-62 -29 -30 -30 39 -2 44 18 52 24 31 23 -16 -2 -48 -11
    -70 -21z"/>
    <path d="M1530 3220 c0 -15 21 -23 32 -12 6 6 2 11 -11 15 -12 3 -21 1 -21 -3z"/>
    <path d="M1008 3202 c-21 -8 -38 -20 -38 -27 0 -11 -37 -28 -65 -29 -5 -1 -16
    -8 -23 -16 -9 -10 -11 -10 -7 -2 6 11 3 12 -14 3 -11 -7 -21 -16 -21 -21 0 -6
    -9 -10 -19 -10 -11 0 -30 -14 -42 -31 -12 -17 -32 -42 -46 -55 -13 -13 -21
    -29 -18 -34 4 -6 1 -9 -6 -8 -7 2 -13 -3 -14 -10 0 -7 -7 -17 -15 -23 -12 -8
    -9 -9 10 -5 14 3 29 6 33 6 5 0 5 5 2 10 -3 6 -2 10 4 10 6 0 8 6 5 13 -2 7
    12 28 32 46 31 29 47 37 77 40 4 1 7 6 7 12 0 8 -4 8 -14 0 -9 -7 -17 -8 -20
    -3 -3 6 0 12 7 15 165 67 174 70 232 68 34 -1 63 -7 67 -14 4 -7 8 -7 9 -2 1
    6 2 15 3 20 0 6 7 19 13 31 12 21 11 21 -30 13 -23 -4 -46 -8 -52 -9 -5 0 -3
    -5 5 -10 11 -7 0 -9 -37 -8 -60 3 -60 3 -8 21 21 8 34 16 29 19 -5 3 -26 -2
    -46 -10z"/>
    <path d="M1183 3173 c-36 -14 -36 -43 0 -42 35 1 180 -18 200 -26 10 -4 17 -3
    17 4 0 6 12 11 26 11 15 0 23 4 19 11 -5 7 -25 8 -57 4 -35 -5 -58 -3 -76 6
    -24 14 -23 14 39 26 l64 11 -55 0 c-30 -1 -70 -7 -89 -14 -44 -18 -49 -18 -53
    4 -3 17 -6 17 -35 5z"/>
    <path d="M1486 3151 c-3 -4 29 -8 71 -9 42 -2 75 -1 72 1 -9 9 -139 16 -143 8z"/>
    <path d="M955 3110 c-4 -7 17 -9 58 -8 36 2 63 6 60 11 -7 11 -111 9 -118 -3z"/>
    <path d="M1131 3089 c4 -9 5 -19 2 -23 -3 -3 20 -6 53 -6 36 0 54 4 46 9 -11
    7 -11 9 2 14 34 13 13 22 -48 22 -56 0 -63 -2 -55 -16z"/>
    <path d="M1667 3098 c7 -8 10 -18 6 -21 -3 -4 -2 -7 4 -7 6 0 17 8 24 18 7 9
    10 14 5 10 -5 -4 -18 -2 -30 4 -18 10 -19 9 -9 -4z"/>
    <path d="M1533 3093 c9 -2 25 -2 35 0 9 3 1 5 -18 5 -19 0 -27 -2 -17 -5z"/>
    <path d="M1355 3075 c-40 -9 -66 -10 -80 -4 -20 10 -20 10 -1 -5 18 -15 18
    -16 2 -16 -9 0 -15 -4 -12 -8 7 -11 91 1 108 16 8 6 41 14 73 17 33 4 62 9 64
    11 9 9 -97 1 -154 -11z"/>
    <path d="M1695 3050 c-3 -5 -4 -14 0 -19 3 -5 -3 -12 -12 -14 -14 -4 -13 -5 4
    -6 12 0 25 4 28 9 3 6 1 10 -5 10 -7 0 -10 7 -6 15 6 17 0 20 -9 5z"/>
    <path d="M1491 3041 c-8 -5 -21 -7 -30 -4 -13 4 -13 3 -2 -5 7 -5 9 -12 5 -14
    -5 -3 -2 -3 6 0 17 5 47 10 73 11 9 1 17 6 17 11 0 12 -50 13 -69 1z"/>
    <path d="M1070 3025 c-6 -7 16 -9 68 -6 110 5 126 16 26 16 -47 0 -89 -4 -94
    -10z"/>
    <path d="M1430 2984 c8 -8 9 -14 4 -13 -26 5 -43 -2 -38 -16 8 -21 27 -19 42
    5 13 22 9 40 -10 40 -6 0 -5 -6 2 -16z"/>
    <path d="M968 2979 c-10 -5 -18 -15 -18 -22 0 -8 3 -9 8 -1 4 6 16 16 27 22
    11 6 16 11 10 11 -5 0 -18 -4 -27 -10z"/>
    <path d="M1307 2983 c-12 -11 -7 -24 6 -16 6 4 30 10 52 14 l40 6 -46 2 c-25
    0 -49 -2 -52 -6z"/>
    <path d="M1695 2980 c-15 -7 -10 -9 23 -9 23 -1 54 -8 67 -17 14 -9 25 -14 25
    -11 0 9 -67 47 -81 46 -8 0 -23 -4 -34 -9z"/>
    <path d="M1035 2970 c-4 -6 -16 -8 -28 -5 -18 4 -17 3 3 -7 14 -7 28 -16 31
    -21 10 -14 21 11 13 26 -6 9 -4 9 8 -1 11 -9 18 -10 23 -2 3 5 2 10 -4 10 -5
    0 -16 3 -24 6 -8 3 -18 0 -22 -6z"/>
    <path d="M1130 2960 c20 -13 50 -13 50 0 0 6 -15 10 -32 10 -25 0 -29 -3 -18
    -10z"/>
    <path d="M1534 2934 c-1 -13 3 -24 10 -24 7 0 8 -3 0 -8 -7 -4 -5 -12 6 -22
    20 -18 40 -23 40 -10 0 6 -7 10 -15 10 -10 0 -15 10 -15 34 0 39 -24 57 -26
    20z"/>
    <path d="M1445 2913 c-19 -20 -33 -38 -31 -41 3 -2 -4 -21 -15 -40 -10 -20
    -19 -46 -18 -57 0 -11 3 -15 5 -8 3 7 13 9 22 6 15 -6 16 -5 2 12 -12 15 -12
    17 -1 10 11 -6 13 -4 8 7 -3 9 1 25 10 37 8 12 12 28 9 36 -3 8 -1 17 4 20 6
    4 10 -2 10 -11 0 -22 7 -15 12 11 1 11 12 28 23 37 11 10 15 17 8 18 -7 0 -28
    -16 -48 -37z"/>
    <path d="M1720 2940 c0 -8 60 -23 67 -17 1 2 -13 8 -32 14 -19 6 -35 8 -35 3z"/>
    <path d="M1373 2927 c-4 -8 -27 -25 -51 -39 -23 -13 -39 -27 -36 -30 3 -4 -4
    -11 -15 -18 -12 -6 -21 -19 -21 -29 0 -10 -7 -25 -16 -32 -15 -12 -16 -11 -9
    11 4 14 10 31 12 38 3 6 0 12 -6 12 -10 0 -15 -13 -8 -25 5 -10 -46 -37 -69
    -37 -21 0 -22 -3 -12 -22 7 -11 11 -24 10 -28 -1 -5 5 -8 13 -8 8 0 15 3 15 8
    0 4 14 13 30 20 17 8 37 27 45 43 9 15 25 34 38 40 21 12 21 11 7 -7 -8 -10
    13 8 47 41 56 54 68 75 43 75 -5 0 -13 -6 -17 -13z m-192 -170 c-1 -12 -15 -9
    -19 4 -3 6 1 10 8 8 6 -3 11 -8 11 -12z"/>
    <path d="M646 2895 c-9 -13 -16 -31 -16 -39 0 -8 -5 -18 -10 -21 -6 -4 -8 -10
    -5 -15 3 -4 -2 -10 -10 -14 -8 -3 -12 -12 -9 -20 4 -10 -3 -20 -20 -27 -27
    -13 -35 -29 -13 -29 22 0 59 32 53 46 -3 8 1 14 9 14 8 0 20 9 28 21 11 15 16
    17 20 7 3 -7 4 -3 4 9 -1 16 -4 19 -14 12 -28 -24 -35 -2 -8 26 18 21 25 24
    21 11 -5 -15 -2 -15 18 5 28 27 25 39 -8 39 -14 0 -30 -10 -40 -25z"/>
    <path d="M1236 2909 c2 -4 -4 -10 -13 -13 -10 -3 -4 -3 12 0 17 3 40 6 53 6
    13 0 21 3 18 6 -9 8 -75 9 -70 1z"/>
    <path d="M1800 2895 c7 -8 17 -15 22 -15 6 0 5 7 -2 15 -7 8 -17 15 -22 15 -6
    0 -5 -7 2 -15z"/>
    <path d="M1493 2886 c0 -6 -3 -22 -7 -36 l-7 -25 20 25 c24 29 27 47 8 47 -8
    0 -14 -5 -14 -11z"/>
    <path d="M720 2870 c-12 -8 -9 -9 12 -8 15 1 24 6 22 10 -7 10 -16 10 -34 -2z"/>
    <path d="M1120 2850 c0 -3 -33 -4 -72 -3 -62 1 -67 0 -33 -7 22 -5 51 -6 65
    -3 17 3 21 2 12 -5 -10 -6 -5 -9 17 -8 17 1 31 4 31 9 0 4 5 7 11 7 5 0 7 -4
    4 -10 -4 -6 5 -10 19 -10 14 0 26 4 26 8 0 5 10 14 23 19 17 8 9 10 -40 9 -35
    -1 -63 -3 -63 -6z"/>
    <path d="M1540 2852 c0 -6 4 -13 9 -16 5 -3 7 -15 4 -26 -3 -11 -1 -20 4 -20
    15 0 13 47 -2 60 -10 8 -15 9 -15 2z"/>
    <path d="M1598 2848 c-4 -8 -2 -21 3 -29 14 -22 10 -39 -8 -40 -11 0 -13 -3
    -5 -6 6 -2 10 -9 7 -14 -4 -5 1 -6 9 -3 9 3 14 10 11 14 -3 5 -1 11 5 15 9 5
    14 -7 11 -27 0 -4 6 -5 14 -2 8 4 15 10 15 16 0 5 -4 7 -8 4 -9 -5 -19 12 -39
    63 -7 19 -11 21 -15 9z"/>
    <path d="M1812 2837 c5 -10 11 -17 12 -15 1 1 7 10 14 19 11 15 9 17 -12 15
    -20 -1 -22 -4 -14 -19z"/>
    <path d="M1373 2838 c-12 -16 -34 -68 -29 -68 7 0 47 72 43 77 -2 2 -8 -2 -14
    -9z"/>
    <path d="M780 2825 c-11 -13 -8 -15 16 -14 17 1 22 3 11 6 -9 2 -15 9 -12 14
    10 15 -1 10 -15 -6z"/>
    <path d="M864 2828 c2 -9 22 -13 59 -14 31 0 54 3 52 7 -3 3 -27 6 -55 5 -27
    0 -52 2 -54 7 -3 4 -3 2 -2 -5z"/>
    <path d="M704 2808 c0 -10 4 -18 8 -18 4 0 12 8 17 18 7 14 6 18 -8 18 -9 0
    -17 -8 -17 -18z"/>
    <path d="M1453 2818 c-15 -19 -25 -68 -14 -68 10 0 34 70 27 77 -2 2 -8 -2
    -13 -9z"/>
    <path d="M1799 2806 c6 -8 22 -16 34 -19 22 -6 22 -6 -2 14 -27 22 -49 26 -32
    5z"/>
    <path d="M1010 2801 c0 -5 5 -13 10 -16 6 -3 10 0 10 7 0 7 7 3 15 -10 16 -21
    46 -25 62 -7 5 4 3 5 -4 1 -6 -3 -15 0 -20 8 -10 17 -73 32 -73 17z"/>
    <path d="M1498 2798 c-4 -10 -3 -18 3 -18 6 0 8 -9 4 -20 -4 -12 -2 -20 5 -20
    8 0 10 -9 7 -23 -4 -12 -2 -28 2 -36 6 -9 10 0 13 27 2 22 0 38 -5 35 -5 -3
    -6 12 -3 34 4 26 3 32 -3 18 -8 -20 -8 -20 -12 0 -4 18 -5 18 -11 3z"/>
    <path d="M1741 2793 c-1 -6 10 -25 24 -41 13 -16 21 -33 17 -37 -4 -5 -2 -5 5
    -2 13 8 6 47 -9 47 -5 0 -6 5 -3 10 3 6 0 10 -9 10 -8 0 -17 6 -19 13 -4 8 -6
    8 -6 0z"/>
    <path d="M750 2773 c8 -3 18 -11 22 -17 4 -6 10 -7 15 -3 9 10 -16 27 -37 26
    -13 -1 -13 -1 0 -6z"/>
    <path d="M1802 2738 c0 -24 9 -64 20 -90 15 -33 19 -56 14 -82 -9 -48 -37 -50
    -29 -2 5 32 -9 57 -22 37 -8 -14 6 -92 16 -85 5 3 9 -2 9 -10 0 -29 15 -16 34
    29 10 25 30 55 45 67 14 11 18 18 9 15 -9 -3 -19 0 -22 8 -3 8 -12 12 -21 9
    -8 -3 -15 -1 -15 5 0 6 7 11 15 11 12 0 13 5 4 28 -6 15 -19 37 -30 48 -15 16
    -17 24 -8 29 7 5 10 4 6 -2 -4 -6 0 -13 8 -17 21 -8 19 7 -3 27 -26 24 -29 22
    -30 -25z"/>
    <path d="M816 2751 c-7 -11 97 -35 117 -28 6 3 -1 6 -18 7 l-30 2 33 8 c48 11
    115 1 102 -15 -9 -11 -27 -16 -127 -32 -18 -3 -33 -8 -33 -12 0 -3 -17 -7 -38
    -8 -51 -4 -70 -8 -79 -18 -4 -4 -2 -5 5 -1 15 9 15 1 0 -27 -10 -20 -10 -21 5
    -8 10 7 17 20 17 27 0 8 5 14 10 14 6 0 10 -5 10 -12 0 -6 7 -3 15 8 8 10 15
    13 15 7 0 -8 14 -12 39 -10 21 1 37 5 34 10 -10 17 110 40 214 40 35 1 51 28
    27 48 -11 9 -14 9 -14 0 0 -7 -4 -9 -10 -6 -5 3 -10 1 -10 -5 0 -6 -4 -8 -10
    -5 -5 3 -10 -1 -10 -9 0 -10 -9 -16 -26 -16 -14 0 -23 4 -19 10 4 6 10 8 15 5
    5 -3 11 -1 15 5 3 5 -3 10 -14 10 -11 0 -22 4 -25 9 -8 12 -203 14 -210 2z"/>
    <path d="M1397 2738 c-9 -31 -2 -33 11 -3 6 14 8 25 3 25 -5 0 -11 -10 -14
    -22z"/>
    <path d="M1461 2745 c2 -39 -1 -56 -10 -51 -13 8 0 -46 16 -69 14 -18 14 -17
    11 23 -4 45 0 49 22 30 12 -11 12 -10 1 4 -7 9 -11 23 -9 32 2 8 -1 15 -7 15
    -5 0 -13 8 -17 18 -7 17 -8 16 -7 -2z"/>
    <path d="M1680 2739 c0 -5 -5 -7 -10 -4 -7 4 -9 -5 -5 -24 4 -23 2 -31 -10
    -31 -8 0 -16 -6 -16 -12 -5 -46 -4 -66 3 -62 4 3 8 14 8 25 0 11 4 18 9 15 5
    -3 11 9 15 27 5 25 9 29 16 17 6 -9 10 -10 10 -3 0 6 -5 15 -10 18 -6 4 -8 15
    -5 26 4 10 4 19 1 19 -3 0 -6 -5 -6 -11z"/>
    <path d="M580 2715 c-1 -5 -2 -14 -1 -18 1 -5 -8 -6 -19 -2 -20 6 -33 -4 -102
    -84 -32 -36 -34 -44 -13 -64 8 -8 11 -18 7 -22 -4 -4 3 -1 16 6 12 8 22 19 22
    26 0 13 12 17 40 14 13 -2 13 -1 0 8 -11 8 -11 11 -2 11 7 0 10 5 7 10 -5 9 6
    14 25 12 3 0 7 8 7 19 1 13 -5 19 -17 19 -13 0 -17 -5 -14 -14 4 -10 -9 -25
    -35 -43 -26 -18 -38 -33 -35 -43 4 -13 3 -13 -11 1 -18 18 -10 50 10 42 9 -3
    21 9 32 33 20 42 53 67 60 47 3 -7 12 -13 21 -13 15 0 15 2 2 10 -12 8 -8 10
    15 11 17 1 22 3 13 6 -9 2 -19 12 -21 21 -3 9 -6 13 -7 7z"/>
    <path d="M823 2709 c14 -8 22 -8 30 0 8 8 3 11 -18 11 -26 -1 -28 -2 -12 -11z"/>
    <path d="M1063 2688 c-18 -6 -33 -15 -33 -19 0 -5 -5 -9 -11 -9 -5 0 -8 4 -5
    8 3 5 -13 9 -35 10 -22 2 -39 -2 -39 -8 0 -6 10 -8 23 -5 24 6 42 -3 48 -23 3
    -10 11 -8 28 7 13 12 30 21 36 21 7 0 18 7 25 15 14 17 9 17 -37 3z"/>
    <path d="M1566 2685 c3 -11 6 -32 5 -47 -1 -15 3 -29 8 -33 14 -8 8 56 -8 80
    -13 20 -13 20 -5 0z"/>
    <path d="M955 2639 c-19 -7 -19 -8 -1 -8 15 -1 16 -4 6 -16 -6 -8 -15 -14 -18
    -13 -23 3 -64 -3 -59 -9 4 -3 2 -12 -4 -20 -9 -10 -8 -13 2 -13 9 -1 8 -5 -5
    -15 -11 -8 -15 -15 -10 -15 6 0 21 12 35 27 13 14 17 23 9 18 -11 -6 -12 -5
    -4 4 11 12 44 5 44 -10 0 -5 4 -9 10 -9 5 0 6 7 3 17 -4 11 -3 14 5 9 7 -4 12
    -1 12 9 0 10 5 13 13 9 9 -6 9 -4 1 7 -6 8 -13 19 -15 25 -3 7 -12 8 -24 3z"/>
    <path d="M1685 2608 c2 -29 10 -54 20 -65 17 -16 17 -16 10 7 -5 14 -7 40 -6
    58 1 19 -2 31 -8 28 -5 -3 -11 0 -14 6 -3 7 -4 -8 -2 -34z"/>
    <path d="M1494 2617 c4 -19 3 -26 -4 -22 -14 9 -13 -8 3 -29 11 -15 12 -12 12
    23 0 22 -4 43 -9 48 -5 4 -6 -5 -2 -20z"/>
    <path d="M1930 2620 c0 -6 6 -10 13 -10 20 0 54 -40 72 -84 27 -63 31 -204 10
    -290 l-18 -74 45 -63 c42 -59 75 -93 166 -172 32 -27 33 -29 26 -90 -3 -34
    -19 -132 -34 -217 -16 -85 -31 -175 -35 -200 -4 -25 -13 -67 -20 -95 -22 -85
    -27 -112 -15 -95 7 12 10 7 10 -20 0 -45 -18 -110 -30 -110 -6 0 -9 -3 -9 -7
    3 -21 -2 -33 -13 -30 -7 1 -12 -4 -10 -12 2 -7 -5 -22 -14 -32 -10 -11 -12
    -19 -6 -19 6 0 16 9 22 20 16 30 29 24 23 -10 -4 -26 20 -128 44 -190 4 -8 7
    -17 8 -20 0 -3 11 -36 22 -75 27 -87 47 -185 39 -192 -3 -4 -7 0 -7 8 -1 8 -4
    -2 -8 -21 -7 -39 -37 -53 -56 -26 -23 31 11 114 41 102 9 -4 11 5 7 32 -8 53
    -21 82 -35 82 -9 0 -9 -3 0 -12 16 -16 15 -75 -2 -85 -21 -12 -36 -49 -36 -85
    1 -38 16 -62 45 -66 26 -5 29 -8 20 -22 -5 -8 -11 -7 -23 2 -13 11 -14 11 -7
    -1 6 -11 4 -13 -8 -8 -9 3 -18 -1 -21 -10 -4 -9 -14 -13 -26 -10 -11 3 -20 2
    -20 -2 0 -10 -100 -42 -110 -36 -4 3 -22 -2 -39 -11 -17 -8 -35 -13 -41 -9 -5
    3 -10 1 -10 -5 0 -16 -43 -29 -122 -36 -80 -6 -177 14 -273 56 -27 13 -57 24
    -65 25 -8 1 -22 6 -32 9 -14 7 -15 3 -6 -34 8 -29 18 -44 35 -51 13 -5 28 -21
    34 -35 20 -53 10 -138 -12 -103 -7 11 -9 10 -9 -3 0 -9 11 -26 25 -36 15 -12
    32 -42 41 -74 21 -72 36 -85 28 -24 -5 34 -3 50 6 56 9 6 7 10 -9 15 -30 9
    -49 52 -45 105 2 25 3 49 3 54 1 5 4 6 8 3 3 -4 12 -2 19 4 15 12 37 3 29 -12
    -4 -5 0 -9 7 -10 20 0 161 -18 180 -22 25 -5 33 -16 16 -22 -25 -10 -3 -85 24
    -85 5 0 2 7 -6 16 -28 27 -19 48 31 69 26 11 51 22 55 23 4 2 8 -6 8 -17 0
    -12 5 -21 10 -21 13 0 13 6 -1 31 -9 18 -7 19 14 14 17 -5 26 -2 30 9 4 10 18
    15 40 14 19 -1 38 1 43 5 12 7 284 70 307 71 9 0 17 5 18 11 0 5 4 1 9 -10 7
    -17 9 -17 9 -2 1 9 7 17 14 18 19 1 92 16 92 19 0 9 41 6 47 -3 5 -8 8 -9 8
    -1 0 16 56 38 75 30 9 -3 13 -2 10 4 -3 6 2 10 12 11 19 1 32 3 82 14 26 6 32
    3 42 -18 11 -24 59 -44 59 -26 0 5 7 9 16 9 8 0 12 5 9 10 -3 6 -21 10 -40 10
    -19 0 -38 6 -42 14 -4 7 -15 16 -23 19 -10 4 -8 6 7 6 12 1 24 -5 26 -11 3 -7
    6 -1 6 15 1 27 -14 38 -21 15 -3 -8 -22 -12 -52 -10 -40 1 -47 -1 -42 -14 3
    -8 2 -13 -3 -9 -5 3 -11 2 -14 -2 -2 -5 -2 -2 0 6 2 9 -2 11 -13 7 -8 -3 -31
    -6 -49 -6 -20 0 -35 -6 -39 -16 -3 -8 -2 -12 4 -9 6 3 10 1 10 -4 0 -14 -27
    -14 -32 0 -2 5 -11 7 -21 4 -9 -4 -14 -11 -11 -16 3 -5 -2 -9 -11 -9 -9 0 -14
    4 -11 8 2 4 -11 6 -30 4 -21 -3 -34 -10 -34 -19 0 -8 -4 -12 -9 -9 -5 4 -12 0
    -14 -6 -4 -10 -6 -10 -6 0 -1 6 -13 12 -28 12 -19 0 -24 -3 -15 -9 11 -6 10
    -10 -4 -15 -9 -3 -19 -4 -22 -1 -3 3 0 5 7 5 7 0 10 4 6 9 -3 5 -1 12 5 16 5
    3 10 16 10 28 0 13 7 32 15 44 12 17 13 27 3 54 -6 19 -16 37 -22 41 -5 4 -10
    25 -9 47 0 23 -4 41 -9 41 -6 0 -5 7 2 15 11 13 10 14 -5 9 -13 -5 -16 -4 -11
    4 4 7 2 12 -4 12 -14 0 -4 -77 17 -135 8 -22 17 -52 20 -67 4 -23 2 -26 -15
    -21 -16 4 -21 16 -27 61 -12 103 -58 279 -92 359 -9 21 -17 45 -19 53 -1 8 -7
    40 -12 70 -7 35 -7 59 -1 65 12 13 29 -12 29 -42 0 -14 6 -23 16 -23 8 0 12 4
    9 10 -12 20 -13 49 -1 53 6 3 29 -4 51 -14 21 -10 52 -19 69 -19 17 0 56 -7
    86 -16 79 -23 135 -33 221 -39 72 -6 78 -9 124 -50 33 -29 49 -51 50 -69 0
    -14 -3 -26 -8 -26 -4 0 -5 -5 -2 -10 5 -8 11 -8 19 -1 7 6 15 8 18 5 3 -3 9 8
    13 23 6 24 1 32 -32 61 -53 46 -57 49 -79 55 -18 5 -18 5 1 11 14 5 21 17 23
    42 1 20 7 45 13 56 6 11 7 27 4 36 -4 9 -9 27 -10 39 -2 11 -6 30 -10 42 -6
    20 -5 20 42 6 26 -8 66 -20 88 -26 22 -6 61 -22 87 -35 27 -13 48 -20 48 -15
    0 12 -21 27 -50 36 -14 4 -43 16 -65 25 -43 19 -137 46 -144 41 -2 -1 -8 3
    -12 11 -5 7 -9 -36 -9 -104 0 -130 -8 -148 -47 -104 -12 15 -23 23 -23 18 0
    -5 7 -15 15 -22 25 -21 17 -25 -44 -22 -56 4 -60 5 -64 30 l-4 27 -2 -28 c-1
    -32 11 -33 -181 20 -69 19 -147 37 -173 40 -26 3 -50 10 -53 14 -3 5 -1 9 4 9
    5 0 9 6 10 13 0 6 6 32 12 56 6 24 8 51 5 59 -3 8 5 54 19 101 13 47 30 108
    37 135 7 27 23 58 36 69 13 12 23 26 23 32 0 6 11 18 25 25 14 7 25 21 25 31
    0 10 14 34 31 54 17 19 28 35 23 35 -15 0 -74 -52 -69 -61 4 -5 1 -9 -4 -9 -6
    0 -11 -9 -11 -20 0 -11 -6 -20 -13 -20 -12 0 -30 -24 -64 -84 -12 -21 -13 -20
    -13 5 0 15 7 29 15 33 10 3 15 19 15 44 0 22 6 57 14 78 7 22 16 73 19 114 l6
    75 -21 -103 c-22 -112 -35 -134 -18 -31 5 35 17 115 25 177 13 93 26 145 41
    170 1 2 15 -9 31 -25 58 -55 93 -83 104 -83 6 0 28 -15 49 -32 50 -44 83 -68
    91 -68 10 0 28 -50 34 -95 9 -63 15 -75 31 -68 12 4 14 14 9 42 -18 99 -25
    110 -119 182 -50 38 -124 94 -164 125 l-74 56 -81 -6 c-45 -3 -103 -9 -129
    -12 -45 -6 -47 -5 -54 22 -4 15 -1 56 6 91 12 63 15 182 4 237 -11 60 -55 133
    -90 149 -19 9 -34 12 -34 7z m356 -566 c-4 -18 -11 -34 -16 -34 -5 0 -8 -13
    -8 -29 1 -39 -10 -55 -26 -39 -7 7 -36 35 -65 62 -61 56 -61 75 1 78 24 1 55
    2 70 3 15 1 31 5 35 9 12 11 16 -12 9 -50z m-46 -1559 c0 -17 -5 -25 -17 -24
    -11 0 -13 3 -5 6 6 2 12 13 12 24 0 10 2 19 5 19 3 0 5 -11 5 -25z m47 -51
    c12 -36 -102 -90 -326 -154 -118 -34 -191 -37 -316 -16 -81 14 -200 51 -223
    69 -16 13 5 41 22 29 56 -42 218 -82 335 -82 76 0 195 26 186 40 -7 12 59 32
    81 24 16 -5 16 -4 4 5 -15 11 -13 12 23 15 6 1 14 3 17 6 13 13 111 41 121 34
    7 -4 9 -3 6 3 -4 6 0 13 8 17 8 3 15 1 15 -5 0 -5 6 -4 14 3 8 7 11 17 9 22
    -3 5 0 7 7 4 8 -2 15 -9 17 -14z"/>
    <path d="M2155 394 l-30 -13 30 6 c32 6 41 11 34 17 -2 2 -17 -2 -34 -10z"/>
    <path d="M800 2608 c-19 -5 -39 -14 -45 -20 -10 -11 -5 -10 43 9 15 6 16 5 2
    -13 -14 -19 -14 -19 8 0 13 11 30 21 38 22 9 1 18 5 22 8 8 9 -28 6 -68 -6z"/>
    <path d="M1899 2573 c-13 -15 -12 -15 7 -5 16 9 27 7 55 -10 l34 -20 -24 26
    c-28 30 -53 33 -72 9z"/>
    <path d="M1737 2569 c-5 -9 -7 -20 -6 -25 3 -19 -3 -49 -8 -36 -7 17 -20 15
    -27 -4 -4 -10 0 -21 9 -28 8 -6 17 -26 20 -45 2 -19 8 -38 14 -44 7 -7 9 -1 6
    19 l-5 29 16 -29 c13 -23 14 -30 3 -37 -11 -6 -9 -13 8 -29 13 -11 34 -45 48
    -75 24 -54 33 -83 16 -57 -6 10 -11 10 -21 -3 -12 -14 -12 -16 1 -15 27 4 39
    0 39 -14 0 -7 10 -26 22 -42 13 -15 17 -25 10 -20 -6 4 -12 3 -12 -3 0 -5 5
    -11 10 -13 6 -2 12 -13 15 -26 2 -13 0 -20 -6 -17 -5 4 -9 14 -9 23 0 15 -2
    15 -10 2 -12 -18 -13 -33 -2 -27 4 3 21 -6 37 -20 17 -14 25 -22 19 -19 -7 3
    -15 -1 -18 -10 -4 -12 -2 -15 9 -10 14 5 20 -5 16 -27 -1 -5 3 -6 8 -3 5 4 12
    2 16 -4 13 -21 23 -9 12 15 -7 14 -16 25 -20 25 -5 0 -6 4 -2 9 3 5 -2 17 -11
    25 -10 10 -11 16 -3 16 8 0 8 5 -2 17 -10 12 -10 15 -1 9 7 -4 3 9 -8 29 -11
    20 -15 33 -9 29 7 -4 10 -3 8 2 -3 5 -17 34 -31 64 -14 30 -42 89 -62 131 -27
    55 -38 93 -41 139 -2 34 -6 64 -8 66 -2 2 -9 -19 -16 -46 -7 -28 -17 -50 -22
    -50 -12 0 -11 37 2 61 5 11 9 34 7 52 -3 23 -6 28 -11 16z"/>
    <path d="M541 2556 c-8 -10 -9 -16 -1 -21 7 -4 7 -12 0 -26 -9 -15 -7 -19 6
    -19 10 0 14 5 10 15 -3 8 3 19 12 25 16 11 16 11 -1 6 -15 -5 -17 -2 -12 14 7
    23 2 26 -14 6z"/>
    <path d="M740 2534 c-14 -8 -18 -14 -10 -14 8 1 24 7 34 15 24 19 10 18 -24
    -1z"/>
    <path d="M810 2525 c-6 -8 -9 -23 -5 -34 4 -13 -1 -27 -15 -41 -16 -16 -18
    -25 -11 -38 10 -16 10 -16 11 1 0 10 9 27 20 39 22 24 26 38 9 38 -5 0 -7 5
    -3 11 4 8 9 8 17 0 14 -14 27 -14 27 -1 0 6 -6 9 -12 8 -7 -2 -12 5 -10 15 4
    21 -11 22 -28 2z"/>
    <path d="M490 2492 c-13 -10 -24 -33 -26 -52 -2 -19 -7 -43 -10 -54 -4 -12 -2
    -16 5 -12 6 4 11 2 11 -4 0 -6 4 -9 9 -6 5 4 8 18 6 33 -1 15 4 33 12 41 8 8
    12 23 10 34 -3 10 -2 16 2 13 4 -2 8 2 8 10 0 19 0 19 -27 -3z"/>
    <path d="M1866 2484 c-8 -21 -4 -25 14 -14 11 7 12 12 4 20 -8 8 -13 7 -18 -6z"/>
    <path d="M506 2382 c-27 -39 -35 -65 -14 -44 17 17 28 15 28 -6 0 -25 34 -55
    57 -49 15 4 14 5 -4 6 -24 1 -31 9 -43 51 -7 23 -4 35 12 55 15 19 16 25 5 25
    -8 0 -26 -17 -41 -38z"/>
    <path d="M1870 2405 c0 -10 10 -15 31 -15 22 0 40 -9 60 -31 l29 -31 0 27 c0
    50 -16 65 -70 65 -38 0 -50 -4 -50 -15z"/>
    <path d="M580 2393 c5 -2 8 -9 5 -13 -3 -5 4 -24 15 -42 11 -18 23 -41 26 -50
    4 -10 10 -18 14 -18 21 0 12 38 -15 65 -16 17 -30 37 -30 45 0 7 -6 14 -13 16
    -7 1 -8 0 -2 -3z"/>
    <path d="M780 2365 c0 -15 -4 -24 -10 -20 -5 3 -7 0 -4 -8 3 -8 1 -18 -5 -22
    -15 -8 -14 -28 1 -23 15 5 39 86 27 94 -5 3 -9 -7 -9 -21z"/>
    <path d="M1377 2379 c-48 -11 -86 -39 -87 -61 0 -10 -5 -18 -12 -18 -6 0 -25
    -11 -42 -23 -17 -13 -44 -27 -61 -31 -26 -7 -27 -9 -12 -17 31 -18 8 -28 -28
    -13 -44 18 -59 18 -51 -2 3 -8 2 -12 -4 -9 -6 3 -10 2 -10 -4 0 -17 41 -33 70
    -27 38 7 163 89 183 120 21 31 58 66 70 66 5 0 -1 -9 -14 -20 l-24 -20 25 9
    c14 5 30 10 35 11 6 1 9 5 8 9 -1 4 13 6 30 4 18 -2 26 0 18 3 -10 5 -6 10 15
    20 28 12 28 12 -21 12 -27 0 -67 -4 -88 -9z"/>
    <path d="M1943 2266 c-22 -30 -28 -46 -19 -46 15 0 59 67 54 82 -2 5 -18 -11
    -35 -36z"/>
    <path d="M1044 2263 c9 -18 18 -33 20 -33 9 0 -8 41 -22 52 -13 11 -12 8 2
    -19z"/>
    <path d="M1432 2285 c2 -3 22 -9 44 -15 l39 -10 -40 4 c-22 2 -49 7 -59 12
    -14 5 -17 4 -12 -4 5 -8 -2 -12 -19 -12 -32 0 -61 -14 -97 -48 -25 -23 -39
    -21 -20 4 4 5 -3 -2 -15 -16 -13 -14 -23 -28 -23 -32 0 -5 -8 -8 -17 -8 -17
    -1 -17 -1 0 -11 9 -5 17 -18 17 -29 0 -24 30 -33 63 -21 14 5 28 7 31 4 3 -4
    6 1 6 10 0 9 8 20 17 26 10 5 14 13 10 18 -5 4 -23 -1 -40 -11 -59 -34 -77
    -38 -77 -17 0 10 7 22 16 25 12 4 15 2 10 -9 -5 -13 -2 -14 17 -4 13 8 17 14
    9 17 -18 6 -15 26 8 47 19 17 21 17 40 0 27 -24 73 -10 78 23 2 12 10 22 18
    22 9 0 12 -5 8 -12 -6 -10 -4 -10 7 0 7 6 25 12 39 12 14 0 35 7 46 16 10 8
    13 13 7 9 -7 -3 -13 -3 -13 2 0 4 -23 9 -51 10 -28 1 -49 0 -47 -2z"/>
    <path d="M654 2269 c-3 -6 2 -17 12 -25 11 -9 13 -13 7 -9 -7 3 -13 1 -13 -4
    0 -10 14 -15 24 -8 17 9 116 -116 116 -146 0 -12 9 -30 19 -41 10 -12 40 -73
    66 -136 26 -63 69 -146 96 -185 27 -38 65 -101 83 -140 36 -74 171 -244 153
    -192 -4 9 -2 17 4 17 6 0 7 5 4 10 -4 6 -11 8 -16 5 -5 -4 -9 2 -9 12 0 11
    -28 52 -62 91 -34 40 -63 78 -64 85 -1 7 -17 37 -37 67 -47 75 -117 207 -117
    223 0 7 15 19 34 25 48 18 52 37 8 40 -29 2 -33 0 -24 -11 14 -16 6 -27 -19
    -27 -14 0 -16 7 -12 42 4 42 4 42 -16 24 -12 -11 -21 -14 -21 -8 0 7 4 12 9
    12 5 0 19 11 31 23 23 23 24 23 42 5 24 -24 52 -11 66 32 6 16 14 30 17 30 3
    0 4 -4 0 -9 -3 -5 -1 -12 5 -16 6 -4 8 -11 4 -16 -3 -5 0 -8 8 -7 7 2 11 -4 9
    -12 -2 -8 -4 -64 -4 -123 l0 -108 34 -35 c18 -19 51 -39 73 -45 35 -9 42 -8
    53 8 13 16 11 18 -19 21 -18 1 -40 6 -48 9 -8 4 -22 7 -30 7 -13 1 -16 30 -20
    174 l-5 174 -30 24 c-31 25 -51 32 -40 14 7 -11 -35 -31 -49 -22 -5 2 -7 -1
    -4 -9 2 -7 15 -16 29 -20 22 -6 22 -7 3 -8 -12 -1 -45 -17 -74 -36 -29 -19
    -58 -35 -65 -35 -18 0 -26 25 -12 39 8 8 8 11 -1 11 -7 0 -12 8 -12 19 0 16 7
    18 52 15 35 -2 48 0 38 6 -10 7 -11 10 -2 10 6 0 12 5 12 11 0 6 -9 7 -22 3
    -34 -11 -102 -11 -110 1 -14 18 -9 37 8 31 11 -4 9 3 -8 27 l-23 32 -5 -35 -6
    -35 -24 52 c-14 29 -29 53 -33 53 -5 0 -5 -6 -1 -12 4 -7 4 -10 -1 -6 -4 4
    -15 2 -23 -5 -13 -10 -14 -9 -4 9 9 16 7 22 -8 32 -13 8 -21 8 -26 1z"/>
    <path d="M920 2206 c5 -13 7 -26 4 -29 -2 -2 2 -10 11 -17 12 -10 15 -10 15 3
    0 22 -21 67 -31 67 -5 0 -4 -11 1 -24z"/>
    <path d="M868 2208 c-3 -7 8 -23 23 -36 35 -29 36 -25 5 16 -15 21 -25 28 -28
    20z"/>
    <path d="M656 2116 c3 -53 10 -86 20 -96 13 -13 14 -12 6 10 -10 27 -8 37 14
    87 8 17 14 35 13 40 0 4 -7 -5 -14 -22 l-14 -30 -1 46 c0 33 -4 46 -14 46 -12
    0 -14 -15 -10 -81z"/>
    <path d="M1393 2155 c0 -17 6 -18 25 -6 11 7 10 10 -3 15 -22 8 -22 8 -22 -9z"/>
    <path d="M697 2045 c11 -32 40 -47 40 -20 0 8 -4 12 -9 9 -5 -4 -16 2 -24 12
    -13 18 -14 18 -7 -1z"/>
    <path d="M1841 2000 c1 -24 15 -54 21 -44 4 5 0 20 -8 34 -7 14 -13 18 -13 10z"/>
    <path d="M1970 1992 c0 -10 3 -22 7 -26 11 -11 11 -76 0 -76 -5 0 -7 -7 -3
    -15 3 -8 1 -26 -4 -40 -6 -16 -6 -34 1 -51 9 -24 8 -26 -6 -14 -12 10 -19 10
    -27 2 -9 -9 -8 -12 7 -12 16 0 17 -2 3 -17 -9 -10 -14 -23 -12 -28 2 -6 -6
    -15 -18 -20 -13 -6 -23 -17 -23 -25 0 -8 -7 -20 -15 -27 -13 -11 -13 -12 0
    -13 12 0 10 -4 -4 -15 -11 -8 -15 -15 -8 -15 7 0 9 -7 5 -17 -4 -11 -8 -12
    -11 -5 -2 7 -10 12 -18 12 -8 0 -14 5 -14 11 0 5 5 7 10 4 6 -3 10 3 10 14 0
    11 -5 23 -12 27 -7 4 -8 3 -4 -4 4 -7 3 -12 -2 -12 -14 0 -9 -40 6 -49 10 -6
    9 -10 -7 -14 -12 -3 -21 -1 -21 5 0 5 -7 2 -16 -6 -8 -9 -20 -13 -26 -10 -7 5
    -8 2 -4 -5 5 -7 14 -10 22 -7 8 3 14 1 14 -5 0 -6 -8 -13 -18 -16 -24 -6 -28
    -53 -4 -53 11 0 13 3 5 8 -8 5 -7 14 6 31 15 20 21 22 37 12 18 -11 18 -11 -1
    -9 -14 2 -21 -4 -23 -20 -2 -13 -10 -26 -18 -29 -8 -3 -11 -10 -7 -16 4 -7 0
    -8 -11 -4 -10 4 -20 7 -22 7 -3 0 -2 6 2 13 4 6 4 9 -1 5 -4 -4 -15 -2 -23 4
    -20 17 -42 18 -42 2 0 -8 5 -14 10 -14 6 0 10 5 10 12 0 20 23 -9 27 -34 5
    -30 12 -35 24 -18 8 13 10 13 18 0 6 -8 12 -12 14 -10 10 11 37 70 35 75 -2 2
    7 12 20 20 12 9 22 21 22 27 0 5 11 19 25 30 14 11 25 25 25 31 0 6 21 51 46
    101 36 69 48 104 52 150 7 90 5 105 -11 124 -8 9 -12 23 -10 30 3 6 0 12 -6
    12 -6 0 -11 -8 -11 -18z"/>
    <path d="M1897 1943 c-12 -11 -8 -22 11 -32 14 -7 17 -5 18 15 2 23 -15 32
    -29 17z"/>
    <path d="M1350 1918 c1 -19 48 -50 68 -45 14 4 13 6 -5 12 -13 4 -23 10 -23
    14 0 3 -9 12 -20 19 -16 10 -20 10 -20 0z"/>
    <path d="M1810 1909 c0 -5 5 -9 11 -9 5 0 7 -6 3 -12 -6 -10 -5 -10 8 -1 8 7
    18 10 21 6 4 -3 7 -1 7 5 0 7 -3 12 -7 13 -5 0 -16 2 -25 4 -10 2 -18 -1 -18
    -6z"/>
    <path d="M1880 1900 c0 -6 5 -8 10 -5 6 3 10 1 10 -4 0 -6 -4 -11 -10 -11 -5
    0 -7 -7 -4 -15 10 -25 26 -17 22 12 -3 26 -28 46 -28 23z"/>
    <path d="M1785 1865 c2 -11 4 -26 4 -33 1 -7 6 -10 11 -7 14 8 13 18 -4 41
    -15 19 -15 19 -11 -1z"/>
    <path d="M1852 1868 c2 -6 10 -14 16 -16 7 -2 10 2 6 12 -7 18 -28 22 -22 4z"/>
    <path d="M1834 1852 c0 -9 14 -25 30 -35 27 -17 28 -19 10 -33 -11 -9 -13 -13
    -6 -9 6 3 12 1 12 -6 0 -23 11 -2 14 29 4 25 1 30 -11 25 -9 -4 -14 -2 -11 3
    3 5 -4 17 -17 26 -21 16 -23 16 -21 0z"/>
    <path d="M1274 1806 c-49 -22 -51 -37 -3 -21 34 12 44 13 50 3 6 -10 13 -8 29
    7 l20 21 -32 2 c-18 1 -47 -5 -64 -12z"/>
    <path d="M1821 1801 c-8 -14 -7 -20 2 -24 7 -3 12 5 12 19 0 29 -1 29 -14 5z"/>
    <path d="M1720 1797 c0 -5 5 -17 10 -28 7 -12 7 -25 1 -36 -6 -12 -5 -22 3
    -29 19 -17 20 57 1 82 -8 10 -15 15 -15 11z"/>
    <path d="M1901 1758 c-1 -16 -12 -23 -34 -19 -5 1 -6 -3 -2 -9 3 -5 -1 -10 -9
    -10 -9 0 -16 -4 -16 -10 0 -5 -7 -10 -15 -10 -8 0 -15 -9 -15 -20 0 -14 5 -18
    16 -13 13 5 13 8 2 15 -9 7 -6 8 10 5 17 -4 22 -2 18 8 -3 9 0 12 10 8 7 -3
    14 0 14 7 0 7 7 18 16 25 9 6 14 18 11 26 -4 10 -6 9 -6 -3z"/>
    <path d="M2425 1761 c-3 -6 -11 -9 -16 -6 -5 4 -9 1 -9 -4 0 -13 10 -14 30 -1
    8 5 12 12 8 15 -3 4 -9 1 -13 -4z"/>
    <path d="M1279 1732 c-1 -4 0 -16 1 -27 2 -20 2 -20 -14 0 -15 20 -15 20 -17
    -5 -3 -55 6 -74 25 -48 7 10 16 15 19 11 4 -3 7 -1 7 6 0 7 5 9 10 6 6 -4 7
    -11 4 -17 -4 -7 -2 -8 5 -4 6 4 9 12 6 17 -4 5 2 9 12 10 55 2 71 12 53 34
    -11 14 -14 13 -25 -2 -11 -15 -13 -15 -22 2 -10 17 -62 30 -64 17z"/>
    <path d="M1513 1729 c-13 -13 -83 -16 -101 -5 -20 12 -13 -13 10 -36 18 -18
    23 -19 32 -7 12 15 41 19 50 6 3 -4 3 -5 -1 -2 -3 3 -11 -2 -17 -11 -7 -9 -31
    -17 -55 -19 -24 -1 -46 -7 -50 -12 -3 -5 -26 -19 -51 -31 -39 -19 -46 -20 -56
    -7 -16 21 -27 19 -15 -3 8 -14 5 -23 -11 -37 l-21 -18 24 -12 c13 -7 28 -12
    32 -12 5 1 15 -10 23 -25 14 -26 10 -58 -7 -58 -5 0 -9 -5 -9 -11 0 -8 6 -7
    17 2 15 12 16 12 10 -4 -4 -11 -3 -16 3 -12 5 3 8 20 7 38 -2 18 1 38 6 45 7
    8 5 12 -6 12 -9 0 -20 7 -25 16 -5 9 -13 15 -18 15 -5 -1 -9 4 -9 10 0 17 147
    89 183 89 18 0 42 4 52 10 15 8 23 3 44 -25 26 -33 29 -56 12 -84 -9 -14 27
    -50 52 -51 6 0 15 0 19 -1 4 0 9 5 12 12 2 7 -1 9 -8 5 -6 -4 -19 -2 -28 4
    -12 7 -13 10 -3 7 8 -2 23 7 33 20 15 19 22 21 33 12 12 -10 13 -9 8 5 -3 9
    -15 16 -25 16 -10 0 -19 5 -19 10 0 6 -5 10 -11 10 -5 0 -7 -5 -3 -12 4 -7 3
    -8 -4 -4 -6 4 -8 14 -5 23 5 12 2 15 -10 10 -9 -3 -19 -2 -22 3 -6 9 8 14 27
    11 4 0 4 7 1 16 -4 11 -8 13 -11 5 -6 -19 -23 -14 -21 6 3 35 -2 43 -32 54
    -19 7 -28 15 -25 24 6 17 4 18 -11 3z m128 -182 c-13 -13 -61 -17 -61 -5 0 4
    5 8 11 8 5 0 8 4 5 8 -3 5 9 6 25 4 22 -3 27 -8 20 -15z"/>
    <path d="M2680 1731 c0 -7 7 -14 15 -17 20 -8 19 -24 0 -24 -12 0 -14 -7 -10
    -27 4 -16 8 -38 11 -51 3 -15 17 -29 38 -37 29 -12 35 -20 41 -61 4 -30 10
    -43 16 -37 6 6 6 20 -1 37 -20 53 -27 51 133 32 10 -1 23 -9 28 -17 6 -10 9
    -10 9 -1 0 6 9 12 20 12 22 0 27 24 8 36 -7 4 -8 3 -4 -4 4 -7 2 -12 -3 -12
    -6 0 -11 5 -11 10 0 6 -7 10 -15 10 -8 0 -15 -6 -15 -12 0 -9 -3 -9 -9 1 -6
    10 -20 12 -45 8 -22 -4 -36 -2 -36 5 0 6 -12 8 -30 5 -20 -5 -30 -3 -30 6 0 8
    -4 7 -10 -3 -6 -9 -10 -11 -10 -3 0 7 -6 10 -13 7 -8 -3 -22 12 -36 36 -22 40
    -22 42 -5 55 26 20 89 19 109 -1 15 -16 15 -19 -12 -40 -25 -21 -26 -23 -8
    -23 11 0 31 14 45 34 14 19 33 35 43 35 10 0 16 -3 14 -7 -3 -5 17 -9 44 -10
    52 -3 67 13 22 22 -16 4 -37 8 -48 11 -11 3 -63 9 -115 14 -52 5 -103 12 -113
    15 -10 4 -17 2 -17 -4z"/>
    <path d="M1760 1724 c0 -7 9 -22 20 -35 l19 -24 0 25 c0 14 -3 19 -6 11 -4
    -10 -9 -8 -19 10 -7 13 -13 19 -14 13z"/>
    <path d="M1666 1697 c3 -8 -2 -17 -11 -21 -9 -3 -13 -10 -10 -16 9 -15 25 -12
    25 6 0 8 4 13 9 10 5 -4 8 2 7 11 -2 9 -8 19 -14 21 -7 2 -10 -2 -6 -11z"/>
    <path d="M1710 1675 c0 -2 9 -9 20 -15 15 -8 20 -8 20 3 0 7 -9 13 -20 14 -11
    1 -20 0 -20 -2z"/>
    <path d="M1191 1639 c5 -11 15 -17 20 -13 14 9 6 27 -14 30 -14 2 -15 -1 -6
    -17z"/>
    <path d="M2720 1656 c0 -2 12 -11 26 -21 17 -11 25 -12 22 -4 -4 11 -48 34
    -48 25z"/>
    <path d="M1761 1624 c6 -7 17 -10 25 -7 23 8 16 21 -11 21 -20 0 -23 -3 -14
    -14z"/>
    <path d="M2495 1629 c-16 -5 -46 -7 -65 -4 -19 2 -27 2 -17 -1 9 -3 17 -10 17
    -15 0 -12 81 -11 100 1 13 9 13 10 0 10 -13 0 -13 1 0 10 18 12 5 11 -35 -1z"/>
    <path d="M1160 1622 c0 -5 7 -16 16 -23 14 -12 16 -11 13 5 -4 20 -29 35 -29
    18z"/>
    <path d="M1160 1569 c0 -23 21 -48 35 -43 21 8 19 26 -2 22 -12 -2 -17 3 -15
    15 2 9 -2 17 -8 17 -5 0 -10 -5 -10 -11z"/>
    <path d="M2415 1540 c-22 -15 -25 -20 -12 -20 18 0 77 27 77 35 0 12 -38 3
    -65 -15z"/>
    <path d="M2706 1508 c8 -60 12 -68 23 -49 5 8 3 27 -5 47 -12 30 -12 34 4 43
    15 9 14 10 -6 11 -22 0 -22 -2 -16 -52z"/>
    <path d="M1699 1533 c-9 -10 -6 -13 15 -11 14 1 26 7 26 14 0 15 -28 14 -41
    -3z"/>
    <path d="M1371 1519 c-26 -10 -28 -23 -2 -16 13 3 18 0 15 -8 -3 -7 -1 -16 4
    -19 5 -3 12 3 15 14 3 13 13 20 29 19 12 0 17 -3 10 -6 -6 -2 -10 -9 -6 -14 3
    -5 1 -9 -5 -9 -5 0 -12 6 -14 13 -4 7 -6 6 -6 -5 -1 -9 12 -23 29 -31 29 -15
    29 -15 19 4 -11 22 -3 62 12 54 5 -4 9 -1 9 5 0 12 -74 11 -109 -1z"/>
    <path d="M2971 1488 c0 -7 7 -29 15 -48 l14 -35 -5 35 c-3 19 -6 41 -7 48 -1
    6 -5 12 -10 12 -4 0 -8 -6 -7 -12z"/>
    <path d="M2660 1464 c0 -10 5 -26 10 -34 8 -11 9 -8 6 14 -6 34 -16 47 -16 20z"/>
    <path d="M1530 1464 c0 -5 5 -15 10 -20 7 -7 8 -19 1 -37 -7 -17 -7 -28 0 -32
    5 -4 7 -11 4 -16 -4 -5 -1 -9 4 -9 14 0 14 13 0 27 -8 8 -8 13 0 17 6 4 11 2
    11 -4 0 -6 4 -9 10 -5 6 3 5 16 -2 33 -13 31 -38 61 -38 46z"/>
    <path d="M1370 1456 c0 -2 6 -9 14 -15 10 -9 15 -8 19 2 3 8 -3 13 -14 14 -10
    1 -19 0 -19 -1z"/>
    <path d="M2797 1453 c-7 -12 23 -103 34 -103 5 0 9 9 9 20 0 11 -4 20 -10 20
    -5 0 -10 10 -10 23 0 26 -15 53 -23 40z"/>
    <path d="M1600 1421 c7 -14 6 -21 -3 -24 -6 -3 -2 -6 10 -6 12 -1 25 4 29 11
    5 7 3 8 -5 4 -8 -5 -14 0 -18 13 -3 12 -9 21 -15 21 -5 0 -4 -8 2 -19z"/>
    <path d="M2721 1431 c-10 -7 -12 -24 -6 -75 4 -38 11 -64 16 -60 5 3 7 15 3
    27 -12 36 -5 91 13 105 13 9 14 12 2 12 -8 0 -20 -4 -28 -9z"/>
    <path d="M1700 1414 c1 -10 2 -28 1 -39 -1 -17 -3 -18 -11 -5 -8 13 -10 12
    -10 -3 0 -24 32 -18 36 6 3 22 14 36 14 18 0 -7 5 -9 10 -6 6 3 10 2 10 -4 0
    -15 -52 -52 -66 -47 -8 3 -11 -1 -7 -10 3 -7 9 -14 15 -14 5 0 6 -5 3 -10 -4
    -6 -11 -7 -17 -4 -7 4 -8 2 -4 -4 10 -17 46 7 38 26 -3 10 -1 13 6 8 8 -4 19
    4 30 23 9 17 20 31 25 31 4 0 7 5 7 11 0 6 -6 9 -14 6 -8 -3 -27 3 -41 15 -25
    20 -27 20 -25 2z"/>
    <path d="M1270 1399 c0 -4 7 -9 15 -13 9 -3 15 0 15 8 0 7 -7 13 -15 13 -8 0
    -15 -4 -15 -8z"/>
    <path d="M1803 1385 c0 -8 4 -15 8 -15 4 0 9 7 13 15 3 9 0 15 -8 15 -7 0 -13
    -7 -13 -15z"/>
    <path d="M1393 1355 c11 -38 21 -44 31 -20 3 8 1 15 -4 15 -5 0 -12 9 -15 20
    -3 11 -10 20 -15 20 -4 0 -3 -16 3 -35z"/>
    <path d="M1090 1352 c-47 -23 -57 -33 -70 -70 -12 -35 -12 -48 -2 -75 7 -17
    24 -69 38 -114 13 -46 35 -106 49 -135 14 -28 25 -57 25 -64 0 -23 81 -169
    112 -201 28 -29 30 -35 20 -57 -18 -39 20 -221 44 -212 6 2 17 -1 23 -7 20
    -20 12 12 -15 58 -14 25 -23 49 -20 54 4 5 2 12 -4 16 -5 3 -10 12 -10 18 0 8
    2 9 8 1 4 -6 15 -11 25 -11 16 0 16 2 -1 18 -11 10 -22 38 -26 68 -4 27 -14
    58 -24 67 -19 20 -29 36 -69 114 -15 30 -32 58 -38 62 -5 4 -7 10 -3 13 6 6
    -65 187 -82 210 -4 6 -10 19 -14 29 -7 21 -3 18 54 -29 27 -22 21 -12 -32 55
    -32 39 -36 50 -31 85 6 50 22 68 84 94 49 22 65 41 32 41 -10 0 -43 -13 -73
    -28z"/>
    <path d="M1280 1355 c0 -8 5 -15 10 -15 6 0 10 7 10 15 0 8 -4 15 -10 15 -5 0
    -10 -7 -10 -15z"/>
    <path d="M2669 1360 c-1 -5 -1 -17 -1 -25 0 -52 2 -58 17 -45 8 7 15 20 14 29
    0 12 -2 11 -9 -4 -9 -22 -14 -8 -10 33 1 21 -9 33 -11 12z"/>
    <path d="M2910 1354 l-25 -15 25 7 c14 3 32 10 40 15 13 7 13 8 0 8 -8 0 -26
    -6 -40 -15z"/>
    <path d="M1470 1353 c0 -6 5 -15 11 -19 8 -4 7 -9 -2 -15 -12 -8 -11 -12 2
    -22 9 -6 14 -18 12 -24 -3 -7 0 -13 6 -13 13 0 14 20 1 40 -6 10 -4 22 6 37 8
    13 10 23 5 23 -5 0 -13 -5 -17 -11 -4 -8 -9 -7 -15 2 -6 10 -9 10 -9 2z"/>
    <path d="M1631 1355 c0 -5 6 -19 14 -29 8 -11 15 -15 15 -10 0 6 -7 19 -15 30
    -8 10 -14 15 -14 9z"/>
    <path d="M1354 1335 c-4 -8 -3 -23 0 -32 4 -9 1 -20 -6 -25 -10 -6 -9 -8 3 -8
    13 0 17 10 17 40 1 42 -5 51 -14 25z"/>
    <path d="M1249 1339 c-7 -23 -4 -46 7 -46 7 0 12 8 11 18 -3 18 -16 37 -18 28z"/>
    <path d="M2840 1311 c17 -55 30 -82 39 -77 5 4 11 2 13 -4 4 -13 108 -52 108
    -41 0 5 -9 13 -20 16 -11 4 -18 10 -16 14 3 4 -4 7 -16 6 -29 -2 -88 56 -88
    87 0 14 -6 25 -14 25 -10 0 -12 -7 -6 -26z"/>
    <path d="M1851 1306 c-8 -10 -6 -18 10 -32 12 -10 27 -31 35 -46 19 -37 49
    -38 40 -2 -15 59 -64 105 -85 80z"/>
    <path d="M1412 1301 c-10 -6 -10 -10 2 -20 16 -13 29 -2 18 16 -4 7 -13 8 -20
    4z"/>
    <path d="M1540 1264 c0 -8 4 -13 9 -9 5 3 12 1 16 -4 3 -5 -2 -14 -11 -19 -11
    -6 -14 -14 -9 -22 6 -10 10 -8 17 9 5 14 12 19 20 15 6 -4 3 5 -8 19 -22 30
    -34 34 -34 11z"/>
    <path d="M1641 1262 c-14 -27 -12 -35 8 -23 7 5 11 17 9 27 -4 17 -5 17 -17
    -4z"/>
    <path d="M2777 1267 c-3 -8 0 -14 6 -15 7 0 24 -3 40 -6 36 -8 34 -1 -5 18
    -37 19 -35 19 -41 3z"/>
    <path d="M2672 1228 c-2 -37 -6 -48 -19 -48 -15 0 -15 -1 0 -18 21 -23 22 -56
    3 -71 -31 -26 -120 9 -100 40 3 5 -2 9 -10 9 -9 0 -16 -5 -16 -10 0 -11 -128
    -6 -175 6 -13 3 -10 -1 7 -11 15 -9 45 -17 67 -19 21 -2 43 -6 49 -10 6 -3 22
    -2 36 4 22 8 28 6 38 -10 7 -11 18 -20 25 -20 7 0 13 -4 13 -8 0 -4 11 -8 24
    -8 14 0 23 3 20 7 -2 4 3 10 12 13 22 9 24 8 24 -9 0 -8 4 -15 9 -15 15 0 23
    18 11 25 -7 4 -7 12 0 25 13 24 13 100 1 100 -6 0 -12 17 -14 38 -3 34 -4 33
    -5 -10z"/>
    <path d="M1310 1240 c0 -10 9 -24 19 -30 18 -9 18 -8 8 20 -13 34 -27 39 -27
    10z"/>
    <path d="M1417 1254 c-12 -12 13 -44 34 -44 12 0 17 4 14 11 -4 6 -13 8 -20 5
    -17 -6 -28 21 -12 28 7 3 8 5 1 5 -6 1 -14 -2 -17 -5z"/>
    <path d="M1511 1251 c-8 -5 -11 -16 -8 -25 10 -25 25 -19 23 9 0 14 -1 25 -1
    25 0 0 -6 -4 -14 -9z"/>
    <path d="M1720 1226 c0 -27 -16 -36 -65 -36 -18 0 -46 -7 -61 -15 -16 -8 -23
    -15 -16 -15 8 0 10 -5 6 -12 -4 -7 4 -3 18 10 29 26 103 31 134 7 20 -15 54
    -20 54 -7 0 4 -11 20 -25 36 -14 16 -25 35 -25 43 0 7 -4 13 -10 13 -5 0 -10
    -11 -10 -24z"/>
    <path d="M2620 1215 c-16 -17 -26 -21 -31 -14 -5 8 -10 5 -18 -8 -5 -11 -8
    -23 -5 -26 10 -10 63 18 75 40 18 33 6 37 -21 8z"/>
    <path d="M1368 1213 c7 -3 25 -16 39 -29 20 -18 29 -21 39 -13 17 14 18 29 3
    29 -5 0 -7 -5 -3 -12 5 -8 2 -9 -10 -5 -10 4 -22 7 -27 7 -6 0 -8 4 -5 9 6 9
    -17 22 -37 20 -8 0 -7 -2 1 -6z"/>
    <path d="M1472 1171 c4 -13 18 -16 19 -4 0 4 -5 9 -11 12 -7 2 -11 -2 -8 -8z"/>
    <path d="M2834 1109 c1 -34 7 -55 18 -63 9 -7 26 -30 37 -52 12 -22 37 -56 57
    -75 20 -18 40 -43 44 -54 8 -17 9 -16 9 10 1 21 -18 58 -65 125 -36 52 -72
    110 -79 128 -8 17 -16 32 -18 32 -2 0 -4 -23 -3 -51z"/>
    <path d="M2930 1123 c0 -10 52 -63 62 -63 16 0 7 22 -19 45 -28 25 -43 31 -43
    18z"/>
    <path d="M2310 1095 c19 -9 46 -19 60 -21 14 -3 52 -11 85 -19 37 -8 65 -10
    75 -5 11 7 7 10 -15 10 -26 0 -122 20 -215 45 -15 4 -11 0 10 -10z"/>
    <path d="M2928 1065 c20 -37 71 -91 72 -75 0 9 -19 34 -41 55 -23 22 -37 31
    -31 20z"/>
    <path d="M2165 990 c-7 -11 25 -133 33 -126 8 8 12 59 6 79 -3 9 -11 17 -19
    17 -8 0 -11 7 -8 20 6 21 -2 27 -12 10z"/>
    <path d="M1989 962 c-20 -15 -93 -79 -163 -142 -101 -92 -132 -126 -152 -170
    -24 -51 -27 -53 -35 -31 -17 42 -121 205 -168 261 -42 50 -69 65 -86 48 -4 -3
    17 -24 47 -46 49 -38 100 -102 81 -102 -4 0 -1 -6 8 -13 9 -7 24 -28 34 -47 9
    -19 33 -56 51 -82 21 -30 31 -54 27 -64 -4 -12 -3 -15 5 -10 7 4 12 11 12 16
    0 5 9 24 21 42 l21 33 -5 -28 -4 -28 27 33 c26 30 27 34 12 51 -8 9 -13 19
    -11 20 2 2 25 15 51 30 25 15 75 56 111 92 36 36 69 65 74 65 5 0 20 11 32 24
    13 14 39 32 57 41 19 9 32 20 29 26 -11 16 -39 9 -76 -19z"/>
    <path d="M1290 942 c0 -4 9 -15 20 -25 18 -15 25 -36 21 -61 -1 -5 5 -6 14 -3
    8 4 15 1 15 -5 0 -8 3 -9 10 -2 14 14 -7 64 -27 64 -7 0 -13 3 -13 8 0 4 -9
    13 -20 20 -11 7 -20 9 -20 4z"/>
    <path d="M2088 933 c-3 -13 -2 -23 4 -23 5 0 7 -4 3 -9 -3 -5 -1 -12 5 -16 11
    -7 12 8 1 45 -7 25 -7 25 -13 3z"/>
    <path d="M2865 881 c17 -18 39 -38 50 -43 12 -7 9 0 -10 18 -45 45 -74 63 -40
    25z"/>
    <path d="M2324 860 c1 -17 6 -30 11 -29 6 0 9 6 7 12 -2 7 -4 20 -5 29 -2 31
    -15 19 -13 -12z"/>
    <path d="M1403 836 c-4 -7 -14 -15 -22 -18 -10 -3 3 -23 40 -65 30 -33 77 -94
    104 -136 28 -42 56 -76 63 -77 6 0 12 2 12 5 0 11 -24 55 -30 55 -3 0 -30 35
    -60 78 -29 42 -64 89 -77 103 -21 23 -23 30 -14 48 13 23 -3 30 -16 7z"/>
    <path d="M2224 824 c-8 -4 -9 -16 -2 -44 11 -43 28 -56 21 -16 -3 13 0 27 6
    30 6 4 11 14 11 22 0 14 -14 17 -36 8z"/>
    <path d="M2881 808 c1 -18 119 -112 119 -95 0 8 -21 32 -47 54 -62 51 -73 57
    -72 41z"/>
    <path d="M2360 728 c0 -3 9 -15 20 -28 11 -13 20 -19 20 -13 0 5 -9 18 -20 28
    -11 10 -20 16 -20 13z"/>
    <path d="M2095 669 c6 -9 3 -11 -8 -6 -11 4 -17 1 -17 -7 0 -15 43 -27 60 -16
    7 4 1 13 -16 24 -14 10 -23 12 -19 5z"/>
    <path d="M2530 550 c-21 -7 -21 -8 -5 -9 11 0 27 4 35 9 18 11 5 11 -30 0z"/>
    <path d="M1345 520 c17 -55 34 -94 34 -80 1 19 -23 87 -33 97 -5 5 -5 -3 -1
    -17z"/>
    <path d="M1530 515 c-7 -9 -10 -18 -7 -22 4 -3 9 2 13 11 3 9 10 13 15 10 5
    -3 9 0 9 5 0 16 -16 13 -30 -4z"/>
    <path d="M2110 458 c0 -7 5 -20 10 -28 8 -11 9 -9 8 13 -2 26 -18 40 -18 15z"/>
    <path d="M2022 425 c-19 -10 -20 -14 -8 -18 9 -4 16 -2 16 2 0 5 12 14 28 19
    20 8 22 10 7 10 -11 0 -30 -6 -43 -13z"/>
    <path d="M1507 395 c29 -20 106 -47 98 -35 -3 6 -12 10 -18 10 -7 0 -30 9 -52
    20 -47 24 -58 26 -28 5z"/>
    <path d="M1283 368 c10 -58 58 -149 88 -167 15 -9 33 -25 38 -36 9 -16 9 -15
    4 10 -3 16 -21 43 -39 61 -34 31 -74 110 -74 145 0 10 -5 19 -11 19 -8 0 -10
    -12 -6 -32z"/>
    <path d="M2661 383 c0 -6 -10 -10 -21 -8 -11 2 -20 -2 -20 -8 0 -7 -4 -6 -10
    3 -5 8 -10 10 -10 4 0 -6 -10 -11 -22 -10 -11 0 -23 -6 -25 -14 -4 -13 -3 -13
    6 0 6 8 11 10 11 4 0 -9 11 -9 38 -3 49 11 73 11 47 -2 -18 -8 -17 -9 4 -5 14
    3 32 0 40 -7 9 -6 12 -7 8 -2 -4 5 1 14 13 20 19 10 18 11 -10 22 -17 6 -30 7
    -30 3 0 -5 8 -11 18 -13 13 -4 12 -5 -5 -6 -13 -1 -23 6 -26 17 -3 9 -5 12 -6
    5z"/>
    <path d="M1330 343 c0 -16 98 -133 111 -133 6 0 8 7 5 16 -3 9 -6 20 -6 25 0
    6 -4 8 -9 5 -5 -4 -30 18 -55 46 -25 29 -46 48 -46 41z"/>
    <path d="M2467 336 c-4 -10 -1 -16 8 -16 8 0 15 -4 15 -9 0 -9 25 -7 80 8 l35
    9 -32 1 c-17 1 -33 4 -36 9 -2 4 -2 1 -1 -5 2 -8 -6 -13 -19 -12 -12 0 -16 3
    -9 6 17 7 15 20 -3 20 -8 0 -15 -5 -15 -11 0 -6 -4 -5 -9 2 -7 11 -9 11 -14
    -2z"/>
    <path d="M2377 317 c-5 -13 -1 -17 14 -17 11 0 18 -4 15 -9 -4 -5 9 -6 29 -1
    19 4 36 5 39 2 4 -3 6 0 6 6 0 7 -7 12 -15 12 -8 0 -15 4 -15 8 0 5 -7 9 -15
    9 -21 0 -19 -15 3 -20 13 -4 11 -5 -5 -6 -16 -1 -23 5 -23 17 0 13 -2 14 -9 3
    -7 -11 -9 -11 -13 0 -3 9 -6 8 -11 -4z"/>
    <path d="M1402 298 c5 -15 28 -23 28 -10 0 5 -7 13 -16 16 -10 4 -14 1 -12 -6z"/>
    <path d="M2310 298 c0 -4 -8 -8 -17 -8 -16 -1 -16 -2 2 -12 25 -15 45 -19 45
    -8 0 5 -6 11 -12 13 -7 3 -3 6 10 6 15 1 21 -3 16 -11 -4 -7 -3 -8 5 -4 6 4
    19 2 27 -5 12 -10 13 -9 8 5 -3 9 -12 16 -20 16 -8 0 -14 4 -14 8 0 4 -11 8
    -25 8 -14 0 -25 -4 -25 -8z"/>
    <path d="M2545 302 c-3 -3 -31 -10 -48 -11 -14 -1 17 -28 33 -29 147 -8 161
    -8 171 5 6 7 20 13 30 13 21 0 25 15 7 26 -6 4 -14 2 -16 -4 -2 -7 -18 -12
    -35 -11 -31 1 -31 1 -7 9 17 6 0 8 -53 7 -43 -1 -80 -3 -82 -5z"/>
    <path d="M2239 290 c-1 -8 -1 -18 0 -22 1 -9 -59 -22 -66 -14 -4 3 3 6 15 6
    11 0 23 4 27 9 3 6 -4 8 -17 5 -13 -3 -43 -9 -68 -14 -25 -6 -70 -15 -100 -21
    -30 -6 -67 -20 -82 -31 -16 -11 -34 -18 -41 -15 -13 5 -102 -37 -112 -53 -3
    -5 13 -3 36 5 23 8 54 17 68 20 14 2 42 11 61 19 35 14 77 26 94 25 5 -1 13 5
    17 13 6 9 9 10 9 1 0 -7 7 -10 16 -6 11 4 12 8 4 13 -7 4 7 7 31 7 24 -1 58 1
    74 5 17 4 43 10 60 13 16 3 32 9 35 12 3 3 -4 3 -15 1 -13 -2 -25 4 -32 17 -9
    15 -13 16 -14 5z"/>
    <path d="M2774 290 c-27 -11 -38 -26 -24 -35 5 -3 10 -1 10 5 0 7 12 9 35 4
    25 -4 35 -3 35 7 0 7 -3 9 -7 6 -3 -4 -11 0 -17 7 -8 10 -18 12 -32 6z"/>
    <path d="M2885 270 l-30 -8 27 -1 c15 0 30 4 33 9 3 6 5 9 3 9 -2 -1 -16 -5
    -33 -9z"/>
    <path d="M2415 250 c-3 -5 1 -10 10 -10 10 0 13 -5 9 -12 -4 -7 -4 -10 1 -6
    11 10 45 -10 45 -27 0 -15 35 -30 50 -20 5 3 10 4 10 0 0 -3 -10 -10 -22 -14
    -21 -8 -22 -10 -4 -16 11 -5 21 -3 26 5 4 7 12 10 18 6 6 -3 13 -2 17 4 3 5
    -14 20 -39 32 -26 12 -46 26 -46 30 0 4 -9 8 -19 8 -10 0 -21 7 -25 15 -6 17
    -22 20 -31 5z"/>
    <path d="M2990 239 c0 -6 -7 -8 -16 -5 -9 3 -12 2 -8 -5 4 -7 -6 -9 -29 -5
    -38 6 -51 -2 -38 -23 7 -10 13 -10 30 -2 11 7 21 9 21 5 0 -3 7 -1 15 6 8 6
    18 9 22 7 5 -3 10 3 10 14 1 10 0 19 -3 19 -2 0 -4 -5 -4 -11z"/>
    <path d="M2598 203 c-23 -6 -23 -15 2 -36 11 -9 20 -13 20 -8 0 5 15 9 33 9
    84 0 209 12 224 21 16 9 15 11 -7 12 -41 3 -73 2 -117 -4 -23 -4 -45 -2 -48 3
    -6 10 -74 12 -107 3z"/>
    <path d="M1772 178 c6 -18 28 -21 28 -4 0 9 -7 16 -16 16 -9 0 -14 -5 -12 -12z"/>
    <path d="M2347 163 c-7 -11 10 -40 18 -31 4 4 3 14 -3 24 -5 9 -12 12 -15 7z"/>
    <path d="M2380 149 c0 -17 46 -24 56 -8 2 4 16 4 29 -1 19 -7 23 -6 18 5 -6
    17 -4 16 -60 19 -34 2 -43 -1 -43 -15z"/>
    <path d="M2750 123 c-19 -2 -69 -8 -110 -14 -41 -6 -88 -13 -105 -15 -16 -1
    -30 -3 -30 -4 0 -3 -49 -8 -93 -11 -24 -1 -45 -6 -48 -10 -2 -5 -11 -6 -19 -3
    -8 3 -24 -2 -37 -11 l-23 -16 25 5 c14 3 75 10 135 16 139 13 184 19 265 31
    36 6 84 13 108 16 90 12 42 23 -68 16z"/>
    <path d="M2950 99 c-67 -17 -216 -38 -375 -55 -88 -9 -182 -22 -210 -29 l-50
    -14 65 0 c109 -1 402 18 460 30 30 6 73 20 95 30 24 12 41 15 43 9 6 -16 22
    -1 22 21 0 21 0 21 -50 8z"/>
    <path d="M1430 47 c0 -16 -9 -27 -27 -34 -27 -10 -26 -11 16 -12 35 -1 42 2
    37 15 -3 9 -6 24 -6 35 0 10 -4 19 -10 19 -5 0 -10 -10 -10 -23z"/>
    <path d="M2248 3 c12 -2 30 -2 40 0 9 3 -1 5 -23 4 -22 0 -30 -2 -17 -4z"/>
    </g>
    </svg>
